<svg width="11" height="18" viewBox="0 0 11 18" fill="none" xmlns="http://www.w3.org/2000/svg">
<path d="M10.0986 0.621476C10.4033 0.936177 10.571 1.35865 10.5652 1.79661C10.5594 2.23458 10.3805 2.65245 10.0676 2.95896L4.12012 8.83263L9.91089 14.779C10.2155 15.0937 10.3833 15.5162 10.3775 15.9542C10.3717 16.3921 10.1928 16.81 9.8799 17.1165C9.72372 17.2699 9.53873 17.3908 9.3356 17.4722C9.13247 17.5537 8.91521 17.5942 8.69636 17.5913C8.47751 17.5884 8.2614 17.5422 8.0605 17.4553C7.8596 17.3685 7.67788 17.2427 7.52583 17.0853L0.589988 9.96306C0.436649 9.80689 0.31575 9.6219 0.234265 9.41876C0.15278 9.21563 0.112321 8.99837 0.115223 8.77953C0.118124 8.56068 0.16433 8.34457 0.251172 8.14367C0.338015 7.94277 0.463776 7.76105 0.621202 7.60899L7.74454 0.590262C7.90072 0.436924 8.08571 0.316023 8.28884 0.234538C8.49197 0.153053 8.70923 0.112593 8.92808 0.115495C9.14693 0.118396 9.36304 0.164602 9.56394 0.251445C9.76484 0.338288 9.94656 0.46405 10.0986 0.621476Z" fill="white"/>
</svg>
